<svg xmlns="http://www.w3.org/2000/svg" width="160" height="160" viewBox="0 0 160 160">
  <g id="Group_154" data-name="Group 154" transform="translate(-0.481 -0.481)">
    <g id="Group_107" data-name="Group 107" transform="translate(0.481 0.481)">
      <g id="Group_106" data-name="Group 106" transform="translate(0 0)">
        <path id="Exclusion_2" data-name="Exclusion 2" d="M80,160a81.287,81.287,0,0,1-8.18-.413,80.218,80.218,0,0,1-7.943-1.212c-2.577-.527-5.157-1.191-7.667-1.971-2.482-.772-4.955-1.677-7.35-2.69A80.234,80.234,0,0,1,6.287,111.14c-1.013-2.4-1.918-4.868-2.69-7.35-.781-2.51-1.444-5.089-1.971-7.667A80.208,80.208,0,0,1,.413,88.18a81.2,81.2,0,0,1,0-16.359,80.21,80.21,0,0,1,1.212-7.943C2.153,61.3,2.816,58.72,3.6,56.21c.772-2.482,1.677-4.955,2.69-7.35A80.234,80.234,0,0,1,48.86,6.287c2.4-1.013,4.868-1.918,7.35-2.69,2.51-.781,5.089-1.444,7.667-1.971A80.21,80.21,0,0,1,71.82.413a81.2,81.2,0,0,1,16.359,0,80.208,80.208,0,0,1,7.943,1.212c2.577.527,5.157,1.191,7.667,1.971,2.482.772,4.955,1.677,7.35,2.69A80.234,80.234,0,0,1,153.713,48.86c1.013,2.4,1.918,4.868,2.69,7.35.781,2.51,1.444,5.089,1.971,7.667a80.218,80.218,0,0,1,1.212,7.943,81.206,81.206,0,0,1,0,16.359,80.216,80.216,0,0,1-1.212,7.943c-.527,2.577-1.191,5.157-1.971,7.667-.772,2.482-1.677,4.955-2.69,7.35a80.233,80.233,0,0,1-42.574,42.574c-2.4,1.013-4.868,1.918-7.35,2.69-2.51.781-5.089,1.444-7.667,1.971a80.216,80.216,0,0,1-7.943,1.212A81.286,81.286,0,0,1,80,160ZM80,27.352a53.035,53.035,0,0,0-10.61,1.07,52.36,52.36,0,0,0-18.826,7.922A52.8,52.8,0,0,0,31.489,59.507a52.382,52.382,0,0,0-3.068,9.883,53.161,53.161,0,0,0,0,21.221,52.36,52.36,0,0,0,7.922,18.826,52.8,52.8,0,0,0,23.164,19.075,52.381,52.381,0,0,0,9.883,3.068,53.16,53.16,0,0,0,21.221,0,52.359,52.359,0,0,0,18.826-7.922,52.8,52.8,0,0,0,19.075-23.164,52.381,52.381,0,0,0,3.068-9.883,53.16,53.16,0,0,0,0-21.221,52.359,52.359,0,0,0-7.922-18.826,52.8,52.8,0,0,0-23.164-19.075,52.382,52.382,0,0,0-9.883-3.068A53.036,53.036,0,0,0,80,27.352Z" transform="translate(0 0)"/>
        <g id="Group_90" data-name="Group 90" transform="translate(48.665 48.612)">
          <g id="Group_90-2" data-name="Group 90" transform="translate(46.47 34.27)">
            <path id="Path_185" data-name="Path 185" d="M418.675,838.682c-4.8,3.507-8.312,1.3-9.492-.319-1.291-1.773-2.21-5.632,2.588-9.139s12.145-1.617,12.145-1.617S423.472,835.175,418.675,838.682Z" transform="translate(-408.149 -827.098)"/>
          </g>
          <g id="Group_91" data-name="Group 91" transform="translate(38.069 45.123)">
            <path id="Path_186" data-name="Path 186" d="M398.951,861.131c-5.913.639-7.849-3.031-8.064-5.02-.235-2.183.9-5.984,6.812-6.623s11.33,4.667,11.33,4.667S404.864,860.492,398.951,861.131Z" transform="translate(-390.859 -849.435)"/>
          </g>
          <g id="Group_92" data-name="Group 92" transform="translate(26.407 49.247)">
            <path id="Path_187" data-name="Path 187" d="M371.748,869.57c-5.437-2.406-5.281-6.552-4.472-8.377.887-2.008,3.774-4.732,9.2-2.327s7.477,9.707,7.477,9.707S377.185,871.975,371.748,869.57Z" transform="translate(-366.858 -857.923)"/>
          </g>
          <g id="Group_93" data-name="Group 93" transform="translate(14.52 46.47)">
            <path id="Path_188" data-name="Path 188" d="M344.261,862.732c-3.508-4.8-1.3-8.312.319-9.492,1.773-1.291,5.633-2.21,9.14,2.588s1.617,12.145,1.617,12.145S347.761,867.537,344.261,862.732Z" transform="translate(-342.392 -852.206)"/>
          </g>
          <g id="Group_94" data-name="Group 94" transform="translate(5.35 38.075)">
            <path id="Path_189" data-name="Path 189" d="M323.594,843.022c-.639-5.913,3.031-7.849,5.019-8.064,2.184-.234,5.985.9,6.624,6.813s-4.667,11.33-4.667,11.33S324.226,848.928,323.594,843.022Z" transform="translate(-323.52 -834.929)"/>
          </g>
          <g id="Group_95" data-name="Group 95" transform="translate(0.483 26.414)">
            <path id="Path_190" data-name="Path 190" d="M314.363,815.819c2.405-5.437,6.551-5.281,8.377-4.472,2.008.887,4.733,3.774,2.327,9.205s-9.707,7.477-9.707,7.477S311.957,821.256,314.363,815.819Z" transform="translate(-313.502 -810.929)"/>
          </g>
          <g id="Group_96" data-name="Group 96" transform="translate(0 14.519)">
            <path id="Path_191" data-name="Path 191" d="M317.75,788.318c4.8-3.507,8.312-1.3,9.492.32,1.29,1.773,2.21,5.633-2.588,9.14s-12.145,1.617-12.145,1.617S312.946,791.826,317.75,788.318Z" transform="translate(-312.509 -786.449)"/>
          </g>
          <g id="Group_97" data-name="Group 97" transform="translate(5.991 5.35)">
            <path id="Path_192" data-name="Path 192" d="M334.917,767.651c5.913-.639,7.849,3.032,8.064,5.02.234,2.184-.9,5.985-6.813,6.624s-11.33-4.668-11.33-4.668S329.011,768.29,334.917,767.651Z" transform="translate(-324.839 -767.577)"/>
          </g>
          <g id="Group_98" data-name="Group 98" transform="translate(18.723 0.485)">
            <path id="Path_193" data-name="Path 193" d="M363.252,758.423c5.437,2.405,5.28,6.551,4.472,8.377-.886,2.008-3.774,4.733-9.2,2.327s-7.477-9.707-7.477-9.707S357.822,756.024,363.252,758.423Z" transform="translate(-351.042 -757.565)"/>
          </g>
          <g id="Group_99" data-name="Group 99" transform="translate(34.263 0)">
            <path id="Path_194" data-name="Path 194" d="M394.611,761.808c3.507,4.8,1.3,8.312-.319,9.492-1.773,1.291-5.632,2.21-9.14-2.589s-1.616-12.144-1.616-12.144S391.1,757.01,394.611,761.808Z" transform="translate(-383.027 -756.567)"/>
          </g>
          <g id="Group_100" data-name="Group 100" transform="translate(45.117 5.997)">
            <path id="Path_195" data-name="Path 195" d="M417.06,778.988c.639,5.912-3.031,7.849-5.02,8.064-2.184.234-5.984-.9-6.623-6.812s4.667-11.33,4.667-11.33S416.421,773.082,417.06,778.988Z" transform="translate(-405.364 -768.91)"/>
          </g>
          <path id="Path_196" data-name="Path 196" d="M423.173,810.674a9.513,9.513,0,0,0,2.327-3.351c2.405-5.437-1-12.211-1-12.211s-7.3,2.041-9.707,7.477c-2.269,5.13.033,7.992,1.988,9.042A15.242,15.242,0,0,1,423.173,810.674Z" transform="translate(-364.612 -776.384)"/>
        </g>
      </g>
    </g>
  </g>
</svg>
