<svg xmlns="http://www.w3.org/2000/svg" xmlns:xlink="http://www.w3.org/1999/xlink" width="133" height="133" viewBox="0 0 133 133">
  <defs>
    <linearGradient id="linear-gradient" x1="0.013" y1="0.5" x2="1" y2="0.5" gradientUnits="objectBoundingBox">
      <stop offset="0" stop-color="#ed0f69"/>
      <stop offset="0.291" stop-color="#831d9e"/>
      <stop offset="1" stop-color="#0019c9"/>
    </linearGradient>
  </defs>
  <g id="Group_108" data-name="Group 108" transform="translate(-0.481 -0.481)">
    <g id="Group_107" data-name="Group 107" transform="translate(0 0)">
      <g id="Group_106" data-name="Group 106" transform="translate(0)">
        <path id="Exclusion_2" data-name="Exclusion 2" d="M66.5,133a67.57,67.57,0,0,1-6.8-.343,66.683,66.683,0,0,1-6.6-1.008c-2.142-.438-4.287-.99-6.373-1.639-2.063-.642-4.119-1.394-6.11-2.236A66.694,66.694,0,0,1,5.226,92.385c-.842-1.991-1.595-4.047-2.236-6.11-.649-2.086-1.2-4.23-1.639-6.373A66.673,66.673,0,0,1,.343,73.3a67.5,67.5,0,0,1,0-13.6,66.674,66.674,0,0,1,1.008-6.6c.438-2.142.99-4.287,1.639-6.373.642-2.063,1.394-4.119,2.236-6.11A66.694,66.694,0,0,1,40.615,5.226c1.991-.842,4.047-1.595,6.11-2.236,2.086-.649,4.231-1.2,6.373-1.639A66.674,66.674,0,0,1,59.7.343a67.5,67.5,0,0,1,13.6,0,66.673,66.673,0,0,1,6.6,1.008c2.143.438,4.287.99,6.373,1.639,2.063.642,4.119,1.394,6.11,2.236a66.694,66.694,0,0,1,35.389,35.389c.842,1.991,1.595,4.047,2.236,6.11.649,2.086,1.2,4.231,1.639,6.373a66.683,66.683,0,0,1,1.008,6.6,67.5,67.5,0,0,1,0,13.6,66.682,66.682,0,0,1-1.008,6.6c-.438,2.143-.99,4.287-1.639,6.373-.642,2.063-1.394,4.119-2.236,6.11a66.694,66.694,0,0,1-35.389,35.389c-1.991.842-4.047,1.595-6.11,2.236-2.086.649-4.23,1.2-6.373,1.639a66.682,66.682,0,0,1-6.6,1.008A67.57,67.57,0,0,1,66.5,133Zm0-110.264a44.085,44.085,0,0,0-8.82.889A43.524,43.524,0,0,0,42.031,30.21,43.891,43.891,0,0,0,26.175,49.465a43.542,43.542,0,0,0-2.55,8.215,44.19,44.19,0,0,0,0,17.64A43.525,43.525,0,0,0,30.21,90.969a43.891,43.891,0,0,0,19.255,15.856,43.541,43.541,0,0,0,8.215,2.55,44.19,44.19,0,0,0,17.64,0,43.524,43.524,0,0,0,15.649-6.585,43.891,43.891,0,0,0,15.856-19.255,43.541,43.541,0,0,0,2.55-8.215,44.19,44.19,0,0,0,0-17.64,43.523,43.523,0,0,0-6.585-15.649A43.891,43.891,0,0,0,83.535,26.175a43.543,43.543,0,0,0-8.215-2.55A44.086,44.086,0,0,0,66.5,22.736Z" transform="translate(0.481 0.481)" fill="url(#linear-gradient)"/>
        <g id="Group_90" data-name="Group 90" transform="translate(40.985 40.941)">
          <g id="Group_90-2" data-name="Group 90" transform="translate(38.677 28.523)">
            <path id="Path_185" data-name="Path 185" d="M416.909,836.74c-3.993,2.919-6.918,1.08-7.9-.266-1.075-1.476-1.839-4.688,2.154-7.607s10.108-1.346,10.108-1.346S420.9,833.821,416.909,836.74Z" transform="translate(-408.149 -827.098)" fill="#4dbaf6"/>
          </g>
          <g id="Group_91" data-name="Group 91" transform="translate(31.685 37.556)">
            <path id="Path_186" data-name="Path 186" d="M397.594,859.17c-4.921.532-6.533-2.523-6.712-4.178-.2-1.817.749-4.98,5.67-5.512s9.43,3.885,9.43,3.885S402.515,858.638,397.594,859.17Z" transform="translate(-390.859 -849.435)" fill="#00a76d"/>
          </g>
          <g id="Group_92" data-name="Group 92" transform="translate(21.979 40.989)">
            <path id="Path_187" data-name="Path 187" d="M370.928,867.617c-4.525-2-4.4-5.453-3.722-6.972.738-1.671,3.142-3.939,7.661-1.937s6.223,8.079,6.223,8.079S375.453,869.619,370.928,867.617Z" transform="translate(-366.858 -857.923)" fill="#9aca3c"/>
          </g>
          <g id="Group_93" data-name="Group 93" transform="translate(12.085 38.677)">
            <path id="Path_188" data-name="Path 188" d="M343.948,860.967c-2.919-3.994-1.08-6.918.266-7.9,1.476-1.074,4.688-1.84,7.607,2.154s1.346,10.108,1.346,10.108S346.861,864.966,343.948,860.967Z" transform="translate(-342.392 -852.206)" fill="#d7df23"/>
          </g>
          <g id="Group_94" data-name="Group 94" transform="translate(4.453 31.69)">
            <path id="Path_189" data-name="Path 189" d="M323.582,841.665c-.532-4.921,2.523-6.533,4.177-6.712,1.818-.2,4.981.749,5.513,5.67s-3.885,9.43-3.885,9.43S324.108,846.581,323.582,841.665Z" transform="translate(-323.52 -834.929)" fill="#fff33e"/>
          </g>
          <g id="Group_95" data-name="Group 95" transform="translate(0.402 21.984)">
            <path id="Path_190" data-name="Path 190" d="M314.218,815c2-4.525,5.453-4.4,6.972-3.722,1.671.738,3.939,3.141,1.937,7.661s-8.079,6.223-8.079,6.223S312.216,819.524,314.218,815Z" transform="translate(-313.502 -810.929)" fill="#fcaf17"/>
          </g>
          <g id="Group_96" data-name="Group 96" transform="translate(0 12.085)">
            <path id="Path_191" data-name="Path 191" d="M316.871,788.005c3.993-2.919,6.918-1.08,7.9.266,1.074,1.476,1.839,4.688-2.154,7.607s-10.108,1.346-10.108,1.346S312.873,790.925,316.871,788.005Z" transform="translate(-312.509 -786.449)" fill="#f04e3e"/>
          </g>
          <g id="Group_97" data-name="Group 97" transform="translate(4.986 4.453)">
            <path id="Path_192" data-name="Path 192" d="M333.227,767.638c4.921-.531,6.533,2.524,6.712,4.178.2,1.818-.749,4.981-5.67,5.513s-9.43-3.885-9.43-3.885S328.312,768.17,333.227,767.638Z" transform="translate(-324.839 -767.577)" fill="#ed0f69"/>
          </g>
          <g id="Group_98" data-name="Group 98" transform="translate(15.583 0.404)">
            <path id="Path_193" data-name="Path 193" d="M361.2,758.279c4.525,2,4.395,5.453,3.722,6.972-.738,1.671-3.141,3.939-7.661,1.937s-6.223-8.079-6.223-8.079S356.685,756.282,361.2,758.279Z" transform="translate(-351.042 -757.565)" fill="#a51048"/>
          </g>
          <g id="Group_99" data-name="Group 99" transform="translate(28.518 0)">
            <path id="Path_194" data-name="Path 194" d="M392.668,760.929c2.919,3.993,1.08,6.918-.266,7.9-1.476,1.074-4.688,1.84-7.607-2.154s-1.345-10.108-1.345-10.108S389.75,756.936,392.668,760.929Z" transform="translate(-383.027 -756.567)" fill="#a52671"/>
          </g>
          <g id="Group_100" data-name="Group 100" transform="translate(37.551 4.992)">
            <path id="Path_195" data-name="Path 195" d="M415.1,777.3c.532,4.921-2.523,6.532-4.178,6.712-1.817.2-4.981-.749-5.512-5.67s3.885-9.43,3.885-9.43S414.567,772.383,415.1,777.3Z" transform="translate(-405.364 -768.91)" fill="#820f71"/>
          </g>
          <path id="Path_196" data-name="Path 196" d="M421.61,808.065a7.918,7.918,0,0,0,1.937-2.789c2-4.525-.83-10.163-.83-10.163s-6.077,1.7-8.079,6.224c-1.888,4.27.027,6.652,1.655,7.526A12.686,12.686,0,0,1,421.61,808.065Z" transform="translate(-372.87 -779.525)" fill="#142cd6"/>
        </g>
      </g>
    </g>
  </g>
</svg>
