<svg xmlns="http://www.w3.org/2000/svg" xmlns:xlink="http://www.w3.org/1999/xlink" width="984" height="193" viewBox="0 0 984 193">
  <defs>
    <linearGradient id="linear-gradient" x1="0.013" y1="0.5" x2="1" y2="0.5" gradientUnits="objectBoundingBox">
      <stop offset="0" stop-color="#ed0f69"/>
      <stop offset="0.291" stop-color="#831d9e"/>
      <stop offset="1" stop-color="#0019c9"/>
    </linearGradient>
  </defs>
  <g id="Group_153" data-name="Group 153" transform="translate(-337 -1708.131)">
    <rect id="Rectangle_175" data-name="Rectangle 175" width="984" height="193" rx="96.5" transform="translate(337 1708.131)" fill="#fff"/>
    <g id="Group_108" data-name="Group 108" transform="translate(384.241 1739.957)">
      <g id="Group_107" data-name="Group 107" transform="translate(0 0)">
        <g id="Group_106" data-name="Group 106" transform="translate(0 0)">
          <path id="Exclusion_2" data-name="Exclusion 2" d="M63,126a64.01,64.01,0,0,1-6.441-.325,63.17,63.17,0,0,1-6.255-.955c-2.03-.415-4.061-.938-6.038-1.552-1.954-.608-3.9-1.321-5.788-2.119A63.184,63.184,0,0,1,4.951,87.522c-.8-1.886-1.511-3.834-2.119-5.788C2.218,79.758,1.7,77.726,1.28,75.7a63.164,63.164,0,0,1-.955-6.255,63.946,63.946,0,0,1,0-12.883A63.166,63.166,0,0,1,1.28,50.3c.415-2.03.938-4.061,1.552-6.038.608-1.954,1.321-3.9,2.119-5.788A63.184,63.184,0,0,1,38.478,4.951c1.886-.8,3.834-1.511,5.788-2.119C46.242,2.218,48.274,1.7,50.3,1.28A63.166,63.166,0,0,1,56.559.325a63.946,63.946,0,0,1,12.883,0A63.164,63.164,0,0,1,75.7,1.28c2.03.415,4.061.938,6.038,1.552,1.954.608,3.9,1.321,5.788,2.119a63.184,63.184,0,0,1,33.527,33.527c.8,1.886,1.511,3.834,2.119,5.788.615,1.977,1.137,4.008,1.552,6.038a63.17,63.17,0,0,1,.955,6.255,63.948,63.948,0,0,1,0,12.883,63.168,63.168,0,0,1-.955,6.255c-.415,2.03-.938,4.061-1.552,6.038-.608,1.954-1.321,3.9-2.119,5.788a63.184,63.184,0,0,1-33.527,33.527c-1.886.8-3.834,1.511-5.788,2.119-1.977.615-4.008,1.137-6.038,1.552a63.168,63.168,0,0,1-6.255.955A64.01,64.01,0,0,1,63,126ZM63,21.54a41.765,41.765,0,0,0-8.356.842A41.234,41.234,0,0,0,39.819,28.62,41.581,41.581,0,0,0,24.8,46.862a41.251,41.251,0,0,0-2.416,7.783,41.864,41.864,0,0,0,0,16.711A41.234,41.234,0,0,0,28.62,86.181,41.581,41.581,0,0,0,46.862,101.2a41.25,41.25,0,0,0,7.783,2.416,41.864,41.864,0,0,0,16.711,0A41.233,41.233,0,0,0,86.181,97.38,41.581,41.581,0,0,0,101.2,79.138a41.25,41.25,0,0,0,2.416-7.783,41.864,41.864,0,0,0,0-16.711A41.233,41.233,0,0,0,97.38,39.819,41.581,41.581,0,0,0,79.138,24.8a41.251,41.251,0,0,0-7.783-2.416A41.766,41.766,0,0,0,63,21.54Z" transform="translate(-0.241 0.175)" fill="url(#linear-gradient)"/>
          <g id="Group_90" data-name="Group 90" transform="translate(39.026 39.4)">
            <g id="Group_90-2" data-name="Group 90" transform="translate(36.674 27.046)">
              <path id="Path_185" data-name="Path 185" d="M416.456,836.24c-3.787,2.768-6.56,1.024-7.491-.252-1.019-1.4-1.744-4.445,2.042-7.213s9.585-1.276,9.585-1.276S420.242,833.472,416.456,836.24Z" transform="translate(-408.149 -827.098)" fill="#4dbaf6"/>
            </g>
            <g id="Group_91" data-name="Group 91" transform="translate(30.044 35.611)">
              <path id="Path_186" data-name="Path 186" d="M397.245,858.666c-4.666.5-6.194-2.392-6.364-3.962-.185-1.723.71-4.722,5.376-5.227s8.942,3.683,8.942,3.683S401.911,858.161,397.245,858.666Z" transform="translate(-390.859 -849.435)" fill="#00a76d"/>
            </g>
            <g id="Group_92" data-name="Group 92" transform="translate(20.841 38.866)">
              <path id="Path_187" data-name="Path 187" d="M370.717,867.115c-4.291-1.9-4.167-5.171-3.529-6.611.7-1.584,2.979-3.735,7.264-1.837s5.9,7.661,5.9,7.661S375.008,869.013,370.717,867.115Z" transform="translate(-366.858 -857.923)" fill="#9aca3c"/>
            </g>
            <g id="Group_93" data-name="Group 93" transform="translate(11.459 36.674)">
              <path id="Path_188" data-name="Path 188" d="M343.867,860.513c-2.768-3.787-1.024-6.56.252-7.491,1.4-1.019,4.445-1.744,7.213,2.042s1.276,9.585,1.276,9.585S346.629,864.305,343.867,860.513Z" transform="translate(-342.392 -852.206)" fill="#d7df23"/>
            </g>
            <g id="Group_94" data-name="Group 94" transform="translate(4.222 30.049)">
              <path id="Path_189" data-name="Path 189" d="M323.579,841.316c-.5-4.666,2.392-6.194,3.961-6.364,1.724-.185,4.723.71,5.227,5.376s-3.683,8.942-3.683,8.942S324.077,845.977,323.579,841.316Z" transform="translate(-323.52 -834.929)" fill="#fff33e"/>
            </g>
            <g id="Group_95" data-name="Group 95" transform="translate(0.381 20.846)">
              <path id="Path_190" data-name="Path 190" d="M314.181,814.788c1.9-4.291,5.17-4.167,6.611-3.529,1.585.7,3.735,2.979,1.837,7.265s-7.661,5.9-7.661,5.9S312.283,819.079,314.181,814.788Z" transform="translate(-313.502 -810.929)" fill="#fcaf17"/>
            </g>
            <g id="Group_96" data-name="Group 96" transform="translate(0 11.459)">
              <path id="Path_191" data-name="Path 191" d="M316.645,787.924c3.787-2.768,6.56-1.024,7.491.252,1.018,1.4,1.744,4.445-2.043,7.213s-9.585,1.276-9.585,1.276S312.854,790.693,316.645,787.924Z" transform="translate(-312.509 -786.449)" fill="#f04e3e"/>
            </g>
            <g id="Group_97" data-name="Group 97" transform="translate(4.728 4.222)">
              <path id="Path_192" data-name="Path 192" d="M332.793,767.635c4.666-.5,6.194,2.393,6.364,3.962.185,1.724-.71,4.723-5.376,5.228s-8.942-3.684-8.942-3.684S328.132,768.14,332.793,767.635Z" transform="translate(-324.839 -767.577)" fill="#ed0f69"/>
            </g>
            <g id="Group_98" data-name="Group 98" transform="translate(14.776 0.383)">
              <path id="Path_193" data-name="Path 193" d="M360.678,758.242c4.291,1.9,4.167,5.17,3.529,6.611-.7,1.584-2.979,3.735-7.264,1.837s-5.9-7.661-5.9-7.661S356.392,756.349,360.678,758.242Z" transform="translate(-351.042 -757.565)" fill="#a51048"/>
            </g>
            <g id="Group_99" data-name="Group 99" transform="translate(27.041 0)">
              <path id="Path_194" data-name="Path 194" d="M392.169,760.7c2.768,3.786,1.024,6.559-.252,7.491-1.4,1.019-4.445,1.744-7.213-2.043s-1.276-9.584-1.276-9.584S389.4,756.917,392.169,760.7Z" transform="translate(-383.027 -756.567)" fill="#a52671"/>
            </g>
            <g id="Group_100" data-name="Group 100" transform="translate(35.606 4.733)">
              <path id="Path_195" data-name="Path 195" d="M414.595,776.864c.5,4.666-2.392,6.194-3.962,6.364-1.723.185-4.723-.71-5.227-5.376s3.684-8.942,3.684-8.942S414.09,772.2,414.595,776.864Z" transform="translate(-405.364 -768.91)" fill="#820f71"/>
            </g>
            <path id="Path_196" data-name="Path 196" d="M421.208,807.394a7.509,7.509,0,0,0,1.837-2.644c1.9-4.291-.787-9.636-.787-9.636s-5.762,1.61-7.661,5.9c-1.79,4.049.026,6.307,1.569,7.136A12.025,12.025,0,0,1,421.208,807.394Z" transform="translate(-374.993 -780.332)" fill="#142cd6"/>
          </g>
        </g>
        <text id="KIWISMEDIA" transform="translate(153.759 100.175)" fill="#142cd6" font-size="113" font-family="GalanoGrotesque-Heavy" font-weight="800"><tspan x="0" y="0" fill="#000">KIWIS</tspan><tspan y="0" fill="#142cd6">MEDIA</tspan></text>
      </g>
    </g>
  </g>
</svg>
